# xmcd
#
# Track frame offsets:
#	150
#	16321
#	33926
#	54938
#	74332
#	92368
#	112962
#	135202
#	152127
#	171222
#	188900
#	207213
#	226338
#	241797
#	264008
#	279267
#
# Disc length: 4014 seconds
#
# Revision: 1
# Processed by: cddbd v1.5.2PL0 Copyright (c) Steve Scherf et al.
# Submitted via: audiograbber 1.83.01
#
DISCID=bd0fac10
DTITLE=Golden Earring - Complete Studio Recordings [CD 29) - Non-Album Tracks 3
DTITLE=[remastered 2017]
DYEAR=2017
DGENRE=Rock
TTITLE0=King Dark
TTITLE1=Shadow Avenue
TTITLE2=Something Heavy Going On
TTITLE3=Gimme A Break
TTITLE4=You Gun My Love
TTITLE5=Time Warp
TTITLE6=Steam Roller
TTITLE7=Madame Zou Zou
TTITLE8=So You Want To Be A Rock 'n' Roll Star - L.A. Woman
TTITLE9=Try A Little Tenderness
TTITLE10=Burning Stuntman
TTITLE11=Mood Indigo
TTITLE12=Miles Away From Nowhere
TTITLE13=Yes, We're On Fire
TTITLE14=Gypsy Rose
TTITLE15=Adrenaline
EXTD=
EXTT0=
EXTT1=
EXTT2=
EXTT3=
EXTT4=
EXTT5=
EXTT6=
EXTT7=
EXTT8=
EXTT9=
EXTT10=
EXTT11=
EXTT12=
EXTT13=
EXTT14=
EXTT15=
PLAYORDER=
